<svg width="323" height="311" viewBox="0 0 323 311" fill="none" xmlns="http://www.w3.org/2000/svg">
<path d="M218.678 76.0584C165.62 69.2557 149.409 22.3852 114.891 12.6904C81.0196 3.18467 53.9836 28.161 54.317 79.182C54.6764 137.167 22.0157 158.57 13.5063 203.64C9.92754 222.59 22.0027 253.73 45.6899 256.91C76.8151 261.008 97.6556 229.067 130.342 211.557C159.676 195.841 205.197 191.13 234.248 181.545C262.725 172.153 294.651 168.068 305.094 135.406C312.035 113.757 298.197 86.2379 218.678 76.0584Z" fill="#5DCEFF" fill-opacity="0.87"/>
<path opacity="0.82" d="M316.693 227.48C300.123 256.873 265.178 246.332 235.92 244.794C178.561 241.771 142.448 318.945 81.0167 281.884C13.0146 240.85 9.87673 162.04 74.9252 129.489C256.948 38.155 331.736 200.803 316.693 227.48Z" fill="#5D8EFF" fill-opacity="0.9"/>
<path d="M8.4762 129.767C13.1575 131.827 18.3696 130.277 20.1176 126.305C21.8656 122.333 19.4877 117.443 14.8064 115.383C10.1251 113.322 4.91302 114.872 3.16498 118.844C1.41694 122.816 3.79487 127.707 8.4762 129.767Z" fill="#5D8EFF"/>
<path d="M36.9454 110.338C36.5621 110.988 36.0138 111.518 35.3662 111.865C34.7186 112.212 33.9991 112.36 33.2942 112.292C32.5892 112.224 31.9285 111.943 31.3915 111.482C30.8544 111.022 30.4637 110.401 30.2661 109.695C30.0686 108.989 30.0726 108.227 30.2777 107.5C30.4828 106.774 30.8803 106.115 31.4225 105.601C31.9647 105.087 32.6287 104.74 33.3347 104.602C34.0408 104.465 34.759 104.542 35.4033 104.824C35.8586 105.057 36.2604 105.386 36.5851 105.79C36.9098 106.195 37.1509 106.667 37.2944 107.18C37.438 107.694 37.4811 108.237 37.4212 108.779C37.3612 109.321 37.1995 109.851 36.9454 110.338Z" fill="#5D8EFF"/>
<path d="M230.118 271.17C230.118 275.544 225.587 279.028 220.015 279.028C214.442 279.028 209.912 275.492 209.912 271.17C209.912 266.848 214.429 263.312 220.015 263.312C225.601 263.312 230.118 266.796 230.118 271.17Z" fill="#5D8EFF"/>
<path d="M245.272 256.296C245.272 258.621 242.76 260.506 239.659 260.506C236.558 260.506 234.046 258.621 234.046 256.296C234.046 253.972 236.572 252.087 239.659 252.087C242.746 252.087 245.272 253.972 245.272 256.296Z" fill="#5D8EFF"/>
<path d="M21.4 125.938H19.644V124.681H24.6954V125.938H22.9745V130.293H21.3766L21.4 125.938Z" fill="white"/>
</svg>
