<svg width="70" height="54" viewBox="0 0 70 54" fill="none" xmlns="http://www.w3.org/2000/svg">
<path d="M15.1021 47.0624C23.4428 50.733 32.729 47.9716 35.8435 40.8946C38.958 33.8176 34.7213 25.105 26.3806 21.4344C18.0399 17.7637 8.75354 20.5251 5.63907 27.6021C2.52459 34.6791 6.76135 43.3918 15.1021 47.0624Z" fill="#5D8EFF"/>
<path d="M65.825 12.4457C65.1421 13.6044 64.1651 14.5492 63.0113 15.1668C61.8574 15.7843 60.5756 16.0485 59.3196 15.9276C58.0635 15.8067 56.8864 15.3058 55.9295 14.485C54.9726 13.6642 54.2765 12.5584 53.9245 11.3C53.5725 10.0417 53.5797 8.68425 53.9452 7.39041C54.3106 6.09658 55.0188 4.92125 55.9848 4.00537C56.9509 3.08949 58.1339 2.47192 59.3919 2.22666C60.6499 1.9814 61.9295 2.11885 63.0774 2.62258C63.8887 3.03744 64.6045 3.62231 65.183 4.34301C65.7615 5.0637 66.1911 5.90581 66.4469 6.82022C66.7026 7.73463 66.7794 8.70301 66.6726 9.66886C66.5659 10.6347 66.2777 11.5787 65.825 12.4457Z" fill="#5D8EFF"/>
</svg>
