<svg width="539" height="427" viewBox="0 0 539 427" fill="none" xmlns="http://www.w3.org/2000/svg">
<path d="M374 427C383.389 427 391 419.165 391 409.5C391 399.835 383.389 392 374 392C364.611 392 357 399.835 357 409.5C357 419.165 364.611 427 374 427Z" fill="#1458B3"/>
<path d="M513.917 323.431C514.236 326.446 513.633 329.487 512.187 332.153C510.741 334.819 508.521 336.983 505.818 338.362C503.116 339.74 500.059 340.267 497.051 339.873C494.042 339.479 491.224 338.182 488.969 336.155C486.713 334.127 485.126 331.463 484.416 328.515C483.706 325.567 483.908 322.473 484.994 319.642C486.08 316.811 488 314.375 490.5 312.657C492.999 310.939 495.962 310.018 498.996 310.018C502.751 309.831 506.428 311.137 509.223 313.65C512.019 316.163 513.706 319.679 513.917 323.431Z" fill="#4AC6E5"/>
<path d="M476.789 341.816C477.119 343.124 477.061 344.51 476.623 345.78C476.185 347.05 475.39 348.14 474.348 348.897C473.307 349.653 472.073 350.038 470.819 349.997C469.564 349.956 468.354 349.491 467.357 348.668C466.36 347.845 465.627 346.705 465.261 345.409C464.895 344.112 464.914 342.725 465.317 341.441C465.719 340.157 466.484 339.042 467.503 338.252C468.523 337.462 469.746 337.037 471.001 337.037C472.351 336.869 473.708 337.273 474.788 338.165C475.867 339.056 476.585 340.365 476.789 341.816Z" fill="#1458B3"/>
<g style="mix-blend-mode:multiply">
<path d="M174.56 236.996C152.629 225.825 125.022 225.183 100.471 221.279C77.5897 217.658 35.9612 201.711 19.2945 184.402C-9.46792 154.561 -7.7216 89.3833 35.7301 68.4792C85.6021 44.5705 148.289 66.5275 202.321 73.6153C285.732 84.581 303.657 20.1738 384.782 9.07972C415.805 4.84241 460.078 14.2159 475.281 45.7261C494.542 85.8394 468.989 131.911 497.906 169.944C508.717 184.171 578.723 244.032 507.254 267.53C481.573 275.979 455.456 281.449 429.313 287.69C404.146 293.725 379.697 300.915 357.098 313.679C326.949 330.731 293.796 356.18 259.101 339C214.442 316.966 215.29 257.772 174.56 236.996Z" fill="#4572C7"/>
</g>
<g style="mix-blend-mode:multiply">
<path d="M64.4667 188.073C-21.7691 320.149 142.973 380.935 247.159 380.935C349.6 380.935 465.445 342.286 465.445 223.513C465.394 -82.1647 212.465 -38.5075 64.4667 188.073Z" fill="#52DDFF"/>
</g>
<path d="M177.41 37.8161C177.41 46.3935 168.268 53.2246 157.02 53.2246C145.772 53.2246 136.629 46.2908 136.629 37.8161C136.629 29.3415 145.772 22.4077 157.02 22.4077C168.268 22.4077 177.41 29.2388 177.41 37.8161Z" fill="#1458B3"/>
<path d="M202.655 7.71826C202.88 9.4927 202.558 11.2934 201.734 12.8808C200.91 14.4682 199.623 15.7672 198.042 16.6049C196.462 17.4427 194.664 17.7796 192.888 17.5707C191.112 17.3619 189.441 16.6173 188.098 15.4359C186.755 14.2545 185.804 12.6924 185.37 10.9571C184.937 9.22187 185.042 7.39578 185.672 5.72171C186.301 4.04764 187.426 2.60491 188.895 1.58535C190.365 0.565795 192.11 0.0177279 193.898 0.014047C196.078 -0.11292 198.22 0.624772 199.86 2.06708C201.499 3.50939 202.504 5.53997 202.655 7.71826Z" fill="#1458B3"/>
</svg>
