<svg width="232" height="227" viewBox="0 0 232 227" fill="none" xmlns="http://www.w3.org/2000/svg">
<path d="M98.0024 164.53H133.996V212.172H98.0024V164.53Z" fill="url(#paint0_linear_22_190)"/>
<path d="M157.741 226.862H74.2579C68.2423 226.862 63.3657 221.986 63.3657 215.97C63.3657 209.955 68.2423 205.078 74.2579 205.078H157.741C163.757 205.078 168.633 209.955 168.633 215.97C168.633 221.985 163.757 226.862 157.741 226.862Z" fill="url(#paint1_linear_22_190)"/>
<path d="M98.0024 179.939L130.235 212.171H133.997V164.53H98.0024V179.939Z" fill="url(#paint2_linear_22_190)"/>
<path d="M214.666 179.939H17.3335C7.76061 179.939 0 172.179 0 162.606V34.5313C0 24.9584 7.76061 17.1978 17.3335 17.1978H214.666C224.239 17.1978 232 24.9584 232 34.5313V162.606C232 172.179 224.239 179.939 214.666 179.939Z" fill="url(#paint3_linear_22_190)"/>
<path d="M158.878 17.1978L185.141 43.4606V164.53H158.878V17.1978Z" fill="url(#paint4_linear_22_190)"/>
<path d="M201.585 164.531H30.4148C22.409 164.531 15.9189 158.04 15.9189 150.035V47.1028C15.9189 39.097 22.409 32.6069 30.4148 32.6069H201.585C209.591 32.6069 216.081 39.097 216.081 47.1028V150.035C216.081 158.041 209.591 164.531 201.585 164.531Z" fill="url(#paint5_linear_22_190)"/>
<path d="M174.287 32.6069H158.878V164.531H185.141V43.4609L174.287 32.6069Z" fill="url(#paint6_linear_22_190)"/>
<path d="M0 148.001V162.606C0 172.179 7.76061 179.939 17.3335 179.939H214.666C224.239 179.939 232 172.179 232 162.606V148.001H0Z" fill="url(#paint7_linear_22_190)"/>
<path d="M115.073 60.0249L129.515 74.4676V164.53H115.073V60.0249Z" fill="url(#paint8_linear_22_190)"/>
<path d="M198.774 92.6929L213.217 107.136V153.64C213.217 159.654 208.341 164.53 202.327 164.53H198.774V92.6929Z" fill="url(#paint9_linear_22_190)"/>
<path d="M116.677 164.226H85.0415V63.5261C85.0415 60.1653 87.7659 57.4404 91.1272 57.4404H110.592C113.953 57.4404 116.678 60.1648 116.678 63.5261V164.226H116.677Z" fill="url(#paint10_linear_22_190)"/>
<path d="M158.878 164.53H127.243V6.08567C127.243 2.72486 129.967 0 133.328 0H152.793C156.154 0 158.879 2.7244 158.879 6.08567V164.53H158.878Z" fill="url(#paint11_linear_22_190)"/>
<path d="M200.836 164.53H169.201V97.2146C169.201 93.8538 171.925 91.1289 175.286 91.1289H194.751C198.112 91.1289 200.837 93.8533 200.837 97.2146V164.53H200.836Z" fill="url(#paint12_linear_22_190)"/>
<path d="M41.3392 70.7227H26.6277C25.288 70.7227 24.2021 69.6368 24.2021 68.2971V61.6765C24.2021 60.3368 25.288 59.251 26.6277 59.251H41.3392C42.6789 59.251 43.7647 60.3368 43.7647 61.6765V68.2971C43.7647 69.6368 42.6789 70.7227 41.3392 70.7227Z" fill="#7ACBFF"/>
<path d="M77.0531 70.7227H50.8113C49.4716 70.7227 48.3857 69.6368 48.3857 68.2971V61.6765C48.3857 60.3368 49.4716 59.251 50.8113 59.251H77.0531C78.3928 59.251 79.4787 60.3368 79.4787 61.6765V68.2971C79.4787 69.6368 78.3928 70.7227 77.0531 70.7227Z" fill="#7ACBFF"/>
<path d="M62.3415 88.0015H77.053C78.3927 88.0015 79.4786 86.9156 79.4786 85.5759V78.9553C79.4786 77.6156 78.3927 76.5298 77.053 76.5298H62.3415C61.0019 76.5298 59.916 77.6156 59.916 78.9553V85.5759C59.916 86.9156 61.0023 88.0015 62.3415 88.0015Z" fill="#7ACBFF"/>
<path d="M26.6277 88.0015H52.8696C54.2092 88.0015 55.2951 86.9156 55.2951 85.5759V78.9553C55.2951 77.6156 54.2092 76.5298 52.8696 76.5298H26.6277C25.288 76.5298 24.2021 77.6156 24.2021 78.9553V85.5759C24.2021 86.9156 25.2885 88.0015 26.6277 88.0015Z" fill="#7ACBFF"/>
<path d="M41.3392 105.279H26.6277C25.288 105.279 24.2021 104.193 24.2021 102.854V96.2332C24.2021 94.8935 25.288 93.8076 26.6277 93.8076H41.3392C42.6789 93.8076 43.7647 94.8935 43.7647 96.2332V102.854C43.7647 104.193 42.6789 105.279 41.3392 105.279Z" fill="#7ACBFF"/>
<defs>
<linearGradient id="paint0_linear_22_190" x1="98.0024" y1="188.351" x2="133.997" y2="188.351" gradientUnits="userSpaceOnUse">
<stop stop-color="#2F73A0"/>
<stop offset="1" stop-color="#174461"/>
</linearGradient>
<linearGradient id="paint1_linear_22_190" x1="116" y1="207.075" x2="116" y2="222.148" gradientUnits="userSpaceOnUse">
<stop stop-color="#2F73A0"/>
<stop offset="1" stop-color="#174461"/>
</linearGradient>
<linearGradient id="paint2_linear_22_190" x1="125.875" y1="199.715" x2="115.412" y2="170.601" gradientUnits="userSpaceOnUse">
<stop stop-color="#092A40" stop-opacity="0"/>
<stop offset="1" stop-color="#092A40"/>
</linearGradient>
<linearGradient id="paint3_linear_22_190" x1="58.1441" y1="40.713" x2="180.527" y2="163.095" gradientUnits="userSpaceOnUse">
<stop stop-color="#2F73A0"/>
<stop offset="1" stop-color="#174461"/>
</linearGradient>
<linearGradient id="paint4_linear_22_190" x1="149.713" y1="84.6801" x2="130.834" y2="71.9428" gradientUnits="userSpaceOnUse">
<stop stop-color="#092A40" stop-opacity="0"/>
<stop offset="1" stop-color="#092A40"/>
</linearGradient>
<linearGradient id="paint5_linear_22_190" x1="67.3119" y1="49.8809" x2="170.302" y2="152.871" gradientUnits="userSpaceOnUse">
<stop stop-color="#EDF5FF"/>
<stop offset="1" stop-color="#C7E9FF"/>
</linearGradient>
<linearGradient id="paint6_linear_22_190" x1="181.505" y1="98.569" x2="152.618" y2="98.569" gradientUnits="userSpaceOnUse">
<stop stop-color="#7ACBFF" stop-opacity="0"/>
<stop offset="1" stop-color="#2F73A0"/>
</linearGradient>
<linearGradient id="paint7_linear_22_190" x1="116" y1="159.433" x2="116" y2="179.996" gradientUnits="userSpaceOnUse">
<stop stop-color="#092A40" stop-opacity="0"/>
<stop offset="1" stop-color="#092A40"/>
</linearGradient>
<linearGradient id="paint8_linear_22_190" x1="126.159" y1="112.278" x2="113.711" y2="112.278" gradientUnits="userSpaceOnUse">
<stop stop-color="#7ACBFF" stop-opacity="0"/>
<stop offset="1" stop-color="#2F73A0"/>
</linearGradient>
<linearGradient id="paint9_linear_22_190" x1="209.861" y1="128.611" x2="197.412" y2="128.611" gradientUnits="userSpaceOnUse">
<stop stop-color="#7ACBFF" stop-opacity="0"/>
<stop offset="1" stop-color="#2F73A0"/>
</linearGradient>
<linearGradient id="paint10_linear_22_190" x1="80.0221" y1="91.7782" x2="124.099" y2="135.856" gradientUnits="userSpaceOnUse">
<stop stop-color="#FF755C"/>
<stop offset="1" stop-color="#FF4181"/>
</linearGradient>
<linearGradient id="paint11_linear_22_190" x1="113.301" y1="54.2879" x2="176.252" y2="117.239" gradientUnits="userSpaceOnUse">
<stop stop-color="#FFCE47"/>
<stop offset="1" stop-color="#FF9356"/>
</linearGradient>
<linearGradient id="paint12_linear_22_190" x1="169.339" y1="113.934" x2="202.506" y2="147.099" gradientUnits="userSpaceOnUse">
<stop stop-color="#7ACBFF"/>
<stop offset="1" stop-color="#45A2E0"/>
</linearGradient>
</defs>
</svg>
