<svg width="69" height="50" viewBox="0 0 69 50" fill="none" xmlns="http://www.w3.org/2000/svg">
<path d="M14.5103 0.989258C14.5102 5.88413 13.3123 10.6927 11.0371 14.9315C8.76187 19.1704 5.4895 22.6901 1.54901 25.1367L0.98584 25.4842L1.54901 25.8406C5.48796 28.2884 8.75866 31.8086 11.0324 36.0473C13.3061 40.2861 14.5027 45.0941 14.502 49.9881H59.0922C61.4586 49.9881 63.7282 48.9773 65.4023 47.1778C67.0763 45.3784 68.0179 42.9375 68.0201 40.3915V10.5859C68.0179 8.03986 67.0763 5.59894 65.4023 3.79948C63.7282 2.00003 61.4586 0.989257 59.0922 0.989258H14.5103Z" fill="white"/>
<path d="M50.5699 23.5879L35.1157 21.0088L37.4844 37.8362L41.733 33.21L48.781 40.8843L53.3692 35.8884L46.3212 28.2141L50.5699 23.5879Z" fill="#0099FF"/>
<path d="M30.8999 13.8438L33.8234 17.3967" stroke="#0099FF" stroke-width="1.15119" stroke-miterlimit="10" stroke-linecap="round"/>
<path d="M41.6252 14.8867L38.0723 17.8103" stroke="#0099FF" stroke-width="1.15119" stroke-miterlimit="10" stroke-linecap="round"/>
<path d="M33.4099 21.6455L29.8569 24.569" stroke="#0099FF" stroke-width="1.15119" stroke-miterlimit="10" stroke-linecap="round"/>
</svg>
