<svg width="63" height="63" viewBox="0 0 63 63" fill="none" xmlns="http://www.w3.org/2000/svg">
<path d="M31.5 62.75C14.2406 62.75 0.25 48.7594 0.25 31.5C0.25 14.2406 14.2406 0.25 31.5 0.25C48.7594 0.25 62.75 14.2406 62.75 31.5C62.75 48.7594 48.7594 62.75 31.5 62.75ZM31.5 56.5C38.1304 56.5 44.4893 53.8661 49.1777 49.1777C53.8661 44.4893 56.5 38.1304 56.5 31.5C56.5 24.8696 53.8661 18.5107 49.1777 13.8223C44.4893 9.13392 38.1304 6.5 31.5 6.5C24.8696 6.5 18.5107 9.13392 13.8223 13.8223C9.13392 18.5107 6.5 24.8696 6.5 31.5C6.5 38.1304 9.13392 44.4893 13.8223 49.1777C18.5107 53.8661 24.8696 56.5 31.5 56.5ZM15.875 34.625H22.125C22.125 37.1114 23.1127 39.496 24.8709 41.2541C26.629 43.0123 29.0136 44 31.5 44C33.9864 44 36.371 43.0123 38.1291 41.2541C39.8873 39.496 40.875 37.1114 40.875 34.625H47.125C47.125 38.769 45.4788 42.7433 42.5485 45.6735C39.6183 48.6038 35.644 50.25 31.5 50.25C27.356 50.25 23.3817 48.6038 20.4515 45.6735C17.5212 42.7433 15.875 38.769 15.875 34.625ZM19 28.375C17.7568 28.375 16.5645 27.8811 15.6854 27.0021C14.8064 26.123 14.3125 24.9307 14.3125 23.6875C14.3125 22.4443 14.8064 21.252 15.6854 20.3729C16.5645 19.4939 17.7568 19 19 19C20.2432 19 21.4355 19.4939 22.3146 20.3729C23.1936 21.252 23.6875 22.4443 23.6875 23.6875C23.6875 24.9307 23.1936 26.123 22.3146 27.0021C21.4355 27.8811 20.2432 28.375 19 28.375ZM44 28.375C42.7568 28.375 41.5645 27.8811 40.6854 27.0021C39.8064 26.123 39.3125 24.9307 39.3125 23.6875C39.3125 22.4443 39.8064 21.252 40.6854 20.3729C41.5645 19.4939 42.7568 19 44 19C45.2432 19 46.4355 19.4939 47.3146 20.3729C48.1936 21.252 48.6875 22.4443 48.6875 23.6875C48.6875 24.9307 48.1936 26.123 47.3146 27.0021C46.4355 27.8811 45.2432 28.375 44 28.375Z" fill="white"/>
</svg>
