<svg width="51" height="45" viewBox="0 0 51 45" fill="none" xmlns="http://www.w3.org/2000/svg">
<path d="M42.6412 0.376953C43.7259 0.376953 44.8001 0.608924 45.8022 1.05962C46.8044 1.51032 47.715 2.17091 48.482 3.00369C49.2491 3.83646 49.8575 4.82511 50.2726 5.91319C50.6878 7.00127 50.9014 8.16746 50.9014 9.34518V35.5738C50.9014 36.7515 50.6878 37.9177 50.2726 39.0058C49.8575 40.0939 49.2491 41.0825 48.482 41.9153C47.715 42.7481 46.8044 43.4087 45.8022 43.8594C44.8001 44.3101 43.7259 44.542 42.6412 44.542H8.32955C7.2448 44.542 6.17068 44.3101 5.1685 43.8594C4.16633 43.4087 3.25573 42.7481 2.4887 41.9153C1.72166 41.0825 1.11322 40.0939 0.698107 39.0058C0.282992 37.9177 0.069336 36.7515 0.069336 35.5738V9.34518C0.0691978 7.05446 0.876433 4.8505 2.32545 3.18544C3.77446 1.52038 5.7554 0.520441 7.86189 0.390751L8.32955 0.376953H42.6412ZM42.6412 4.51614H8.32955L7.96356 4.53269C6.8511 4.63242 5.81384 5.18264 5.05769 6.07415C4.30154 6.96566 3.88178 8.13326 3.88174 9.34518V35.5738C3.88174 38.2394 5.87436 40.4029 8.32955 40.4029H42.6412C43.8208 40.4029 44.9521 39.8941 45.7863 38.9885C46.6204 38.0828 47.089 36.8545 47.089 35.5738V9.34518C47.089 8.06444 46.6204 6.83615 45.7863 5.93053C44.9521 5.02491 43.8208 4.51614 42.6412 4.51614ZM18.5036 23.8323C19.0091 23.8323 19.494 24.0504 19.8515 24.4385C20.209 24.8266 20.4098 25.353 20.4098 25.9019V27.5079C20.4098 31.0179 17.947 32.8006 14.0507 32.8006C10.1544 32.8006 7.69415 31.0179 7.69415 27.5052V25.9019C7.69415 25.353 7.89498 24.8266 8.25246 24.4385C8.60994 24.0504 9.09479 23.8323 9.60035 23.8323H18.5036ZM22.5193 23.8296L26.1208 23.8323C26.6263 23.8323 27.1112 24.0504 27.4687 24.4385C27.8261 24.8266 28.027 25.353 28.027 25.9019V26.8208C28.027 29.4782 26.0826 30.731 23.2615 30.731C22.9666 30.731 22.6794 30.7172 22.4049 30.6896C22.7026 29.8981 22.8795 29.0593 22.9285 28.2061L22.9514 27.5079V25.9019C22.9514 25.1596 22.7964 24.456 22.5193 23.8296ZM33.7456 23.8323H41.3704C41.8534 23.8325 42.3183 24.0317 42.6712 24.3897C43.0241 24.7476 43.2387 25.2377 43.2716 25.7609C43.3045 26.284 43.1533 26.8012 42.8485 27.208C42.5437 27.6147 42.1081 27.8807 41.6296 27.9522L41.3704 27.9715H33.7456C33.2626 27.9713 32.7977 27.7722 32.4448 27.4142C32.0919 27.0562 31.8773 26.5661 31.8444 26.043C31.8115 25.5198 31.9627 25.0026 32.2675 24.5959C32.5723 24.1891 33.0079 23.9231 33.4863 23.8516L33.7456 23.8323H41.3704H33.7456ZM14.0482 12.7945C15.0596 12.7945 16.0296 13.2307 16.7448 14.0072C17.46 14.7838 17.8618 15.8369 17.8618 16.9351C17.8618 18.0332 17.46 19.0864 16.7448 19.8629C16.0296 20.6394 15.0596 21.0756 14.0482 21.0756C13.0367 21.0756 12.0667 20.6394 11.3515 19.8629C10.6363 19.0864 10.2345 18.0332 10.2345 16.9351C10.2345 15.8369 10.6363 14.7838 11.3515 14.0072C12.0667 13.2307 13.0367 12.7945 14.0482 12.7945ZM23.8842 14.1797C24.3007 14.1797 24.7132 14.2688 25.098 14.4419C25.4828 14.615 25.8325 14.8686 26.127 15.1884C26.4216 15.5082 26.6552 15.8878 26.8146 16.3057C26.974 16.7235 27.0561 17.1713 27.0561 17.6236C27.0561 18.0758 26.974 18.5236 26.8146 18.9414C26.6552 19.3593 26.4216 19.7389 26.127 20.0587C25.8325 20.3785 25.4828 20.6321 25.098 20.8052C24.7132 20.9783 24.3007 21.0674 23.8842 21.0674C23.0429 21.0674 22.2361 20.7045 21.6413 20.0587C21.0464 19.4128 20.7122 18.5369 20.7122 17.6236C20.7122 16.7102 21.0464 15.8343 21.6413 15.1884C22.2361 14.5426 23.0429 14.1797 23.8842 14.1797ZM33.7456 15.554H41.3704C41.8534 15.5541 42.3183 15.7533 42.6712 16.1113C43.0241 16.4693 43.2387 16.9593 43.2716 17.4825C43.3045 18.0056 43.1533 18.5228 42.8485 18.9296C42.5437 19.3364 42.1081 19.6024 41.6296 19.6738L41.3704 19.6931H33.7456C33.2626 19.693 32.7977 19.4938 32.4448 19.1358C32.0919 18.7778 31.8773 18.2878 31.8444 17.7646C31.8115 17.2415 31.9627 16.7243 32.2675 16.3175C32.5723 15.9107 33.0079 15.6447 33.4863 15.5733L33.7456 15.554H41.3704H33.7456Z" fill="#0099FF"/>
</svg>
