<svg width="16" height="16" viewBox="0 0 16 16" fill="none" xmlns="http://www.w3.org/2000/svg">
<path d="M10.2263 7.95236C10.2986 7.87476 10.333 7.78599 10.3295 7.68605C10.3259 7.58611 10.2854 7.49999 10.2078 7.42768L8.03501 5.40307C7.91861 5.29461 7.78321 5.27137 7.6288 5.33335C7.47487 5.39482 7.40099 5.513 7.40716 5.68789L7.55532 9.88528C7.56149 10.0602 7.64352 10.1728 7.80139 10.2233C7.95979 10.2743 8.09322 10.2415 8.20168 10.1251L10.2263 7.95236ZM15.7261 7.49557C15.7627 8.53242 15.6002 9.51377 15.2387 10.4396C14.8776 11.3654 14.3717 12.1775 13.7209 12.8759C13.0701 13.5743 12.2957 14.1362 11.3977 14.5617C10.4996 14.9876 9.53219 15.2189 8.49533 15.2555C7.45848 15.2921 6.47714 15.1296 5.55131 14.768C4.62549 14.4069 3.81339 13.901 3.115 13.2503C2.41661 12.5995 1.85444 11.8251 1.4285 10.927C1.00306 10.029 0.772038 9.06154 0.735441 8.02469C0.698844 6.98783 0.861078 6.0065 1.22215 5.08069C1.58371 4.15486 2.08988 3.34275 2.74065 2.64436C3.39142 1.94596 4.16583 1.38405 5.06388 0.958605C5.96192 0.532663 6.92936 0.301393 7.96621 0.264795C9.00307 0.228198 9.98441 0.390683 10.9102 0.752249C11.8361 1.11332 12.6482 1.61923 13.3465 2.27C14.0449 2.92077 14.6069 3.69519 15.0323 4.59324C15.4582 5.49127 15.6895 6.45871 15.7261 7.49557Z" fill="#4572C7"/>
</svg>
