<svg width="16" height="17" viewBox="0 0 16 17" fill="none" xmlns="http://www.w3.org/2000/svg">
<g clip-path="url(#clip0_139_280)">
<path d="M10.8634 16.3402H5.03354C2.35082 16.3402 0.175293 14.1647 0.175293 11.482V5.65206C0.175293 2.96934 2.35082 0.793813 5.03354 0.793813H10.8634C13.5462 0.793813 15.7217 2.96934 15.7217 5.65206V11.482C15.7217 14.1647 13.5462 16.3402 10.8634 16.3402ZM14.2642 5.65206C14.2642 3.77678 12.7387 2.25129 10.8634 2.25129H5.03354C3.15826 2.25129 1.63277 3.77678 1.63277 5.65206V11.482C1.63277 13.3572 3.15826 14.8827 5.03354 14.8827H10.8634C12.7387 14.8827 14.2642 13.3572 14.2642 11.482V5.65206Z" fill="white"/>
<path d="M7.94861 12.4536C5.80224 12.4536 4.06201 10.7134 4.06201 8.56701C4.06201 6.42064 5.80224 4.68041 7.94861 4.68041C10.095 4.68041 11.8352 6.42064 11.8352 8.56701C11.8352 10.7134 10.095 12.4536 7.94861 12.4536ZM7.94861 6.13789C6.60968 6.13789 5.51949 7.22808 5.51949 8.56701C5.51949 9.90692 6.60968 10.9961 7.94861 10.9961C9.28754 10.9961 10.3777 9.90692 10.3777 8.56701C10.3777 7.22808 9.28754 6.13789 7.94861 6.13789Z" fill="white"/>
<path d="M12.1263 12.227C12.4123 12.227 12.6442 12.4589 12.6442 12.7449C12.6442 13.031 12.4123 13.2628 12.1263 13.2628C11.8403 13.2628 11.6084 13.031 11.6084 12.7449C11.6084 12.4589 11.8403 12.227 12.1263 12.227Z" fill="white"/>
</g>
<defs>
<clipPath id="clip0_139_280">
<rect width="15.5464" height="15.5464" fill="white" transform="matrix(1 0 0 -1 0.175293 16.3402)"/>
</clipPath>
</defs>
</svg>
