<svg width="31" height="31" viewBox="0 0 31 31" fill="none" xmlns="http://www.w3.org/2000/svg">
<path d="M19.8748 15.5002L14.0415 9.66683L14.0415 21.3335L19.8748 15.5002ZM30.0832 15.5002C30.0832 17.5175 29.7001 19.4134 28.934 21.1877C28.1689 22.962 27.13 24.5054 25.8175 25.8179C24.505 27.1304 22.9616 28.1692 21.1873 28.9343C19.413 29.7004 17.5172 30.0835 15.4998 30.0835C13.4825 30.0835 11.5866 29.7004 9.81234 28.9343C8.03803 28.1692 6.49463 27.1304 5.18213 25.8179C3.86963 24.5054 2.83032 22.962 2.06421 21.1877C1.29907 19.4134 0.916504 17.5175 0.916504 15.5002C0.916504 13.4828 1.29907 11.587 2.06421 9.81266C2.83032 8.03836 3.86963 6.49496 5.18213 5.18246C6.49463 3.86996 8.03803 2.83114 9.81234 2.066C11.5866 1.29989 13.4825 0.916832 15.4998 0.916832C17.5172 0.916832 19.413 1.29989 21.1873 2.066C22.9616 2.83114 24.505 3.86996 25.8175 5.18246C27.13 6.49496 28.1689 8.03836 28.934 9.81266C29.7001 11.587 30.0832 13.4828 30.0832 15.5002ZM27.1665 15.5002C27.1665 12.2432 26.0363 9.48454 23.7759 7.22412C21.5155 4.96371 18.7568 3.8335 15.4998 3.8335C12.2429 3.8335 9.48421 4.96371 7.2238 7.22412C4.96338 9.48454 3.83317 12.2432 3.83317 15.5002C3.83317 18.7571 4.96338 21.5158 7.2238 23.7762C9.48421 26.0366 12.2429 27.1668 15.4998 27.1668C18.7568 27.1668 21.5155 26.0366 23.7759 23.7762C26.0363 21.5158 27.1665 18.7571 27.1665 15.5002Z" fill="#4190CD"/>
</svg>
