<svg width="16" height="20" viewBox="0 0 16 20" fill="none" xmlns="http://www.w3.org/2000/svg">
<path d="M8.12588 0C2.88076 0.000797251 0.0927734 3.36121 0.0927734 7.02538C0.0927734 8.72432 1.0423 10.8442 2.56266 11.5163C2.99636 11.7116 2.93896 11.4732 3.31207 10.0462C3.34157 9.92737 3.32642 9.82452 3.23075 9.71371C1.05745 7.19997 2.80662 2.03219 7.81574 2.03219C15.0651 2.03219 13.7106 12.0632 9.077 12.0632C7.88271 12.0632 6.99298 11.1256 7.27441 9.96564C7.61564 8.584 8.28373 7.09872 8.28373 6.10296C8.28373 3.59321 4.54462 3.96553 4.54462 7.29086C4.54462 8.31852 4.90817 9.01213 4.90817 9.01213C4.90817 9.01213 3.70512 13.8722 3.48189 14.7802C3.10399 16.3173 3.53291 18.8056 3.57038 19.02C3.5935 19.138 3.72585 19.1755 3.79999 19.0782C3.91878 18.9228 5.37297 16.8483 5.78036 15.3487C5.92865 14.8026 6.53695 12.5862 6.53695 12.5862C6.93797 13.3101 8.09399 13.916 9.32574 13.916C12.9899 13.916 15.6384 10.6951 15.6384 6.6985C15.6256 2.86691 12.3465 0 8.12588 0Z" fill="white"/>
</svg>
