<svg width="31" height="31" viewBox="0 0 31 31" fill="none" xmlns="http://www.w3.org/2000/svg">
<path d="M11.1252 15.4998L16.9585 21.3332L16.9585 9.6665L11.1252 15.4998ZM0.916831 15.4998C0.916831 13.4825 1.29989 11.5866 2.066 9.81234C2.83114 8.03803 3.86995 6.49463 5.18245 5.18213C6.49495 3.86963 8.03836 2.83081 9.81266 2.06567C11.587 1.29956 13.4828 0.916503 15.5002 0.916503C17.5175 0.916503 19.4134 1.29956 21.1877 2.06567C22.962 2.83081 24.5054 3.86963 25.8179 5.18213C27.1304 6.49463 28.1697 8.03803 28.9358 9.81234C29.7009 11.5866 30.0835 13.4825 30.0835 15.4998C30.0835 17.5172 29.7009 19.413 28.9358 21.1873C28.1697 22.9616 27.1304 24.505 25.8179 25.8175C24.5054 27.13 22.962 28.1689 21.1877 28.934C19.4134 29.7001 17.5175 30.0832 15.5002 30.0832C13.4828 30.0832 11.587 29.7001 9.81266 28.934C8.03836 28.1689 6.49495 27.13 5.18245 25.8175C3.86995 24.505 2.83114 22.9616 2.066 21.1873C1.29989 19.413 0.916831 17.5172 0.916831 15.4998ZM3.8335 15.4998C3.8335 18.7568 4.96371 21.5155 7.22412 23.7759C9.48454 26.0363 12.2432 27.1665 15.5002 27.1665C18.7571 27.1665 21.5158 26.0363 23.7762 23.7759C26.0366 21.5155 27.1668 18.7568 27.1668 15.4998C27.1668 12.2429 26.0366 9.48421 23.7762 7.22379C21.5158 4.96338 18.7571 3.83317 15.5002 3.83317C12.2432 3.83317 9.48454 4.96338 7.22412 7.22379C4.96371 9.48421 3.8335 12.2429 3.8335 15.4998Z" fill="#4190CD"/>
</svg>
