<svg width="75" height="75" viewBox="0 0 75 75" fill="none" xmlns="http://www.w3.org/2000/svg">
<path d="M15.3623 54.9174H59.6394V61.8105H15.3623V54.9174ZM30.1213 37.0987L40.4231 46.7284L54.9313 33.1662L59.6394 37.6847V23.8984H44.8804L49.714 28.2928L40.4195 36.9747L30.1213 27.345L15.3623 41.1312L20.5796 46.0046L30.1213 37.0987Z" fill="white"/>
<path d="M63.75 6.81966H51.3825C51.0143 6.31561 50.6136 5.83182 50.1825 5.37083L50.145 5.32992C47.3898 2.41266 43.5134 0.561676 39.3075 0.155034C38.1132 -0.0516781 36.8868 -0.0516781 35.6925 0.155034C31.4866 0.561676 27.6102 2.41266 24.855 5.32992L24.8175 5.37083C24.3865 5.83072 23.9858 6.31337 23.6175 6.81625V6.81966H11.25C8.26723 6.82237 5.40748 7.90073 3.29834 9.81809C1.1892 11.7354 0.00297831 14.3352 0 17.0467V64.7729C0.00297831 67.4845 1.1892 70.0842 3.29834 72.0016C5.40748 73.9189 8.26723 74.9973 11.25 75H63.75C66.7328 74.9973 69.5925 73.9189 71.7017 72.0016C73.8108 70.0842 74.997 67.4845 75 64.7729V17.0467C74.997 14.3352 73.8108 11.7354 71.7017 9.81809C69.5925 7.90073 66.7328 6.82237 63.75 6.81966ZM67.5 64.7729C67.5 65.6771 67.1049 66.5442 66.4017 67.1835C65.6984 67.8228 64.7446 68.182 63.75 68.182H11.25C10.2557 68.1811 9.30249 67.8216 8.59945 67.1825C7.8964 66.5434 7.50099 65.6768 7.5 64.7729V17.0467C7.50099 16.1429 7.8964 15.2763 8.59945 14.6372C9.30249 13.9981 10.2557 13.6386 11.25 13.6377H28.3125C28.7428 11.7111 29.8926 9.97901 31.567 8.73489C33.2414 7.49076 35.3375 6.81112 37.5 6.81112C39.6625 6.81112 41.7586 7.49076 43.433 8.73489C45.1074 9.97901 46.2572 11.7111 46.6875 13.6377H63.75C64.7443 13.6386 65.6975 13.9981 66.4006 14.6372C67.1036 15.2763 67.499 16.1429 67.5 17.0467V64.7729Z" fill="white"/>
</svg>
