<svg width="75" height="75" viewBox="0 0 75 75" fill="none" xmlns="http://www.w3.org/2000/svg">
<path d="M70.0625 14.7458V35.1667H65.875V16.6667V16.2812L65.5231 16.4384L55.6324 20.8551L55.4369 20.9424L55.4932 21.149C56.1499 23.5602 56.1821 26.0718 55.5873 28.4955C54.9926 30.9192 53.7859 33.1938 52.0556 35.1469C50.3253 37.1001 48.1166 38.6807 45.5948 39.7676C43.0729 40.8545 40.305 41.4187 37.5002 41.4167H37.4998C34.695 41.4187 31.9271 40.8545 29.4052 39.7676C26.8834 38.6807 24.6747 37.1001 22.9444 35.1469C21.2141 33.1938 20.0074 30.9192 19.4127 28.4955C18.8179 26.0718 18.8501 23.5601 19.5068 21.149L19.5632 20.9423L19.3674 20.855L5.30223 14.5837L37.5 0.27358L70.0625 14.7458ZM28.2265 24.7715L27.875 24.6153V25C27.875 29.7483 32.2342 33.5833 37.5 33.5833C42.7658 33.5833 47.125 29.7483 47.125 25V24.6153L46.7735 24.7715L37.5 28.8931L28.2265 24.7715ZM50.494 14.4776L50.9957 14.2497L50.4938 14.0223L38.3532 8.52228L38.25 8.47556L38.1469 8.52225L25.5375 14.2306L25.0336 14.4587L25.5378 14.6862L37.7253 20.1862L37.8285 20.2328L37.9315 20.1859L50.494 14.4776ZM8.65625 67.0833V67.3333H8.90625H66.0938H66.3438V67.0833V62.5C66.3438 62.0603 66.0493 61.6111 65.6115 61.1802C65.163 60.7389 64.5166 60.2707 63.7113 59.7928C62.0989 58.836 59.8128 57.819 57.0987 56.8885C51.6699 55.0273 44.4938 53.5 37.5 53.5C30.4361 53.5 23.26 55.0272 17.8484 56.8886C15.1429 57.8192 12.8698 58.8362 11.2683 59.7932C10.4684 60.2711 9.82688 60.7395 9.38201 61.1809C8.94742 61.6122 8.65625 62.0612 8.65625 62.5V67.0833ZM37.5 46.0833C43.7304 46.0833 53.077 47.4642 60.8596 50.2304C64.7513 51.6135 68.2355 53.3374 70.742 55.3957C73.2485 57.4539 74.75 59.8221 74.75 62.5V74.75H0.25V62.5C0.25 59.8221 1.75154 57.4539 4.25802 55.3957C6.76454 53.3374 10.2487 51.6135 14.1404 50.2304C21.923 47.4642 31.2696 46.0833 37.5 46.0833Z" fill="white" stroke="#0469BC" stroke-width="0.5"/>
</svg>
