<svg width="21" height="19" viewBox="0 0 21 19" fill="none" xmlns="http://www.w3.org/2000/svg">
<path d="M19.5884 3.9799C19.7416 3.71922 19.705 3.38881 19.4984 3.168C19.3526 3.01212 19.1466 2.93712 18.943 2.95415C19.0412 2.73469 19.1239 2.50541 19.1898 2.26803C19.2664 1.99208 19.1626 1.69764 18.9298 1.53083C18.697 1.36402 18.3848 1.36034 18.1481 1.5216C17.6632 1.85201 17.1377 2.10276 16.5809 2.27024C15.8603 1.55701 14.9021 1.11135 13.8487 1.11135C11.487 1.11135 9.73627 3.27015 9.73627 5.71737C9.73627 5.75996 9.73666 5.80257 9.73747 5.84519C7.44381 5.48104 5.40902 4.11992 3.97924 2.11292C3.84055 1.91823 3.61008 1.81031 3.37172 1.82845C3.13336 1.84659 2.92188 1.98813 2.81424 2.20157C2.47186 2.88045 2.27131 3.65742 2.27131 4.4916C2.27131 5.25064 2.43772 5.97457 2.73461 6.61389C2.68752 6.62776 2.64154 6.64685 2.59754 6.67116C2.38012 6.79127 2.24515 7.02004 2.24515 7.26842V7.2685V7.26857V7.26864V7.26871V7.26878V7.26885V7.26892V7.26899V7.26906V7.26913V7.2692V7.26927V7.26934V7.26941V7.26948V7.26956V7.26963V7.2697V7.26977V7.26984V7.26991V7.26999V7.27006V7.27013V7.2702V7.27027V7.27035V7.27042V7.27049V7.27056V7.27064V7.27071V7.27078V7.27085V7.27093V7.271V7.27107V7.27115V7.27122V7.27129V7.27137V7.27144V7.27151V7.27159V7.27166V7.27173V7.27181V7.27188V7.27195V7.27203V7.2721V7.27218V7.27225V7.27232V7.2724V7.27247V7.27255V7.27262V7.2727V7.27277V7.27285V7.27292V7.273V7.27307V7.27315V7.27322V7.2733V7.27337V7.27345V7.27352V7.2736V7.27367V7.27375V7.27382V7.2739V7.27398V7.27405V7.27413V7.2742V7.27428V7.27436V7.27443V7.27451V7.27458V7.27466V7.27474V7.27481V7.27489V7.27497V7.27504V7.27512V7.2752V7.27528V7.27535V7.27543V7.27551V7.27558V7.27566V7.27574V7.27582V7.27589V7.27597V7.27605V7.27613V7.2762V7.27628V7.27636V7.27644V7.27652V7.27659V7.27667V7.27675V7.27683V7.27691V7.27699V7.27706V7.27714V7.27722V7.2773V7.27738V7.27746V7.27754V7.27762V7.27769V7.27777V7.27785V7.27793V7.27801V7.27809V7.27817V7.27825V7.27833V7.27841V7.27849V7.27857V7.27865V7.27873V7.27881V7.27889V7.27897V7.27905V7.27913V7.27921V7.27929V7.27937V7.27945V7.27953V7.27961V7.27969V7.27977V7.27985V7.27993V7.28001V7.28009V7.28017V7.28025V7.28033V7.28042V7.2805V7.28058V7.28066V7.28074V7.28082V7.2809V7.28098V7.28107V7.28115V7.28123V7.28131V7.28139V7.28147V7.28156V7.28164V7.28172V7.2818V7.28188V7.28197V7.28205V7.28213V7.28221V7.28229V7.28238V7.28246V7.28254V7.28262V7.28271V7.28279V7.28287V7.28295V7.28304V7.28312V7.2832V7.28329V7.28337V7.28345V7.28353V7.28362V7.2837V7.28378V7.28387V7.28395V7.28403V7.28412V7.2842V7.28428V7.28437V7.28445V7.28454V7.28462V7.2847V7.28479V7.28487V7.28495V7.28504V7.28512V7.28521V7.28529V7.28537V7.28546V7.28554V7.28563V7.28571V7.2858V7.28588V7.28596V7.28605V7.28613V7.28622V7.2863V7.28639V7.28647V7.28656V7.28664V7.28673V7.28681V7.2869V7.28698V7.28707V7.28715V7.28724V7.28732V7.28741V7.28749V7.28758V7.28766V7.28775V7.28783V7.28792V7.28801V7.28809V7.28818V7.28826V7.28835V7.28843V7.28852V7.28861V7.28869V7.28878V7.28886V7.28895V7.28903V7.28912V7.28921V7.28929V7.28938V7.28947V7.28955V7.28964V7.28972V7.28981V7.2899V7.28998V7.29007V7.29016V7.29024V7.29033V7.29042V7.2905V7.29059V7.29068V7.29076V7.29085V7.29094V7.29102V7.29111V7.2912V7.29129V7.29137V7.29146V7.29155V7.29163V7.29172V7.29181V7.2919V7.29198V7.29207V7.29216V7.29224V7.29233V7.29242V7.29251V7.29259V7.29268V7.29277V7.29286V7.29294V7.29303V7.29312V7.29321V7.2933V7.29338V7.29347V7.29356V7.29365V7.29374V7.29382V7.29391V7.294V7.29409V7.29418V7.29426V7.29435V7.29444V7.29453V7.29462V7.29471V7.29479V7.29488V7.29497V7.29506V7.29515V7.29524V7.29532V7.29541V7.2955V7.29559V7.29568V7.29577V7.29586V7.29594V7.29603V7.29612V7.29621V7.2963V7.29639V7.29648V7.29657V7.29666V7.29674V7.29683V7.29692V7.29701V7.2971V7.29719V7.29728V7.29737V7.29746V7.29755V7.29764V7.29772V7.29781V7.2979V7.29799V7.29808V7.29817V7.29826V7.29835V7.29844V7.29853V7.29862V7.29871V7.2988V7.29889V7.29898V7.29907V7.29915V7.29924V7.29933V7.29942V7.29951V7.2996V7.29969V7.29978V7.29987V7.29996V7.30005V7.30014V7.30023V7.30032V7.30041V7.3005V7.30059V7.30068V7.30077V7.30086V7.30095V7.30104V7.30113V7.30122V7.30131V7.3014V7.30149V7.30158V7.30167V7.30176V7.30185V7.30194V7.30203V7.30212V7.30221V7.3023V7.30239V7.30248V7.30257V7.30266V7.30275V7.30285V7.30294V7.30303V7.30312V7.30321V7.3033V7.30339V7.30348V7.30357V7.30366V7.30375V7.30384V7.30393V7.30402V7.30411V7.3042V7.30429V7.30438V7.30447V7.30456V7.30466V7.30475V7.30484V7.30493V7.30502V7.30511V7.3052V7.30529V7.30538V7.30547V7.30556V7.30565V7.30574V7.30583V7.30593V7.30602V7.30611V7.3062V7.30629V7.30638V7.30647V7.30656V7.30665V7.30674V7.30683V7.30692V7.30702V7.30711V7.3072V7.30729V7.30738V7.30747V7.30756V7.30765V7.30774V7.30783V7.30793V7.30802V7.30811V7.3082V7.30829V7.30838V7.30847V7.30856V7.30865V7.30874V7.30884V7.30893V7.30902V7.30911V7.3092V7.30929V7.30938V7.30947V7.30956V7.30965V7.30975V7.30984V7.30993V7.31002V7.31011V7.3102V7.31029V7.31038V7.31047V7.31057V7.31066V7.31075V7.31084V7.31093V7.31102V7.31111V7.3112V7.31129V7.31139V7.31148C2.24515 8.66125 2.77079 9.90594 3.62902 10.7622C3.46569 10.9371 3.40569 11.1851 3.47171 11.4158C3.82647 12.655 4.65251 13.7126 5.75047 14.255C4.93789 14.7023 4.03028 14.9512 3.07923 14.9512C2.82082 14.9512 2.58524 14.938 2.35651 14.9046C2.04669 14.8593 1.74581 15.0307 1.62673 15.3203C1.50765 15.6098 1.60094 15.9433 1.85299 16.1291C3.48298 17.3304 5.42515 18.0225 7.52326 18.0225C10.9223 18.0225 13.5538 16.4047 15.3166 14.1193C17.0684 11.8483 17.9747 8.90838 17.9747 6.17778C17.9747 6.10969 17.974 6.04275 17.9727 5.97687C18.6087 5.40937 19.1455 4.73343 19.5884 3.9799Z" stroke="white" stroke-width="1.36471" stroke-linejoin="round"/>
</svg>
