<svg width="18" height="18" viewBox="0 0 18 18" fill="none" xmlns="http://www.w3.org/2000/svg">
<path d="M5.328 13.0154C5.45167 13.107 5.60389 13.1558 5.76 13.1538C5.87178 13.1538 5.98202 13.1288 6.08199 13.0808C6.18197 13.0327 6.26893 12.9629 6.336 12.8769C6.77193 12.318 7.3372 11.8644 7.98704 11.552C8.63688 11.2396 9.35345 11.0769 10.08 11.0769C10.8065 11.0769 11.5231 11.2396 12.173 11.552C12.8228 11.8644 13.3881 12.318 13.824 12.8769C13.94 13.0219 14.1104 13.1175 14.2987 13.1434C14.487 13.1693 14.6784 13.1233 14.832 13.0154C14.9076 12.9608 14.9714 12.8925 15.0195 12.8143C15.0677 12.736 15.0994 12.6494 15.1128 12.5594C15.1261 12.4694 15.1209 12.3778 15.0975 12.2897C15.074 12.2017 15.0327 12.1189 14.976 12.0462C14.3388 11.2237 13.4886 10.5762 12.51 10.1683C13.0454 9.6973 13.4203 9.08175 13.5855 8.40234C13.7507 7.72293 13.6985 7.01138 13.4358 6.36098C13.173 5.71059 12.712 5.15172 12.1132 4.75766C11.5143 4.3636 10.8056 4.15275 10.08 4.15275C9.35436 4.15275 8.64565 4.3636 8.04682 4.75766C7.44799 5.15172 6.98698 5.71059 6.72425 6.36098C6.46152 7.01138 6.40933 7.72293 6.57453 8.40234C6.73973 9.08175 7.11461 9.6973 7.65 10.1683C6.67144 10.5762 5.82119 11.2237 5.184 12.0462C5.06943 12.193 5.02023 12.3777 5.04724 12.5594C5.07424 12.7412 5.17524 12.9052 5.328 13.0154V13.0154ZM7.92 7.61538C7.92 7.20461 8.04668 6.80306 8.28403 6.46151C8.52137 6.11996 8.85872 5.85376 9.2534 5.69656C9.64809 5.53936 10.0824 5.49823 10.5014 5.57837C10.9204 5.65851 11.3053 5.85632 11.6074 6.14678C11.9094 6.43724 12.1152 6.80731 12.1985 7.2102C12.2818 7.61308 12.2391 8.03068 12.0756 8.41019C11.9121 8.7897 11.6352 9.11407 11.28 9.34228C10.9248 9.5705 10.5072 9.69231 10.08 9.69231C9.50786 9.69003 8.95983 9.47048 8.55527 9.08147C8.1507 8.69247 7.92237 8.16552 7.92 7.61538V7.61538ZM16.56 0H3.6C3.21809 0 2.85182 0.145879 2.58177 0.405544C2.31171 0.66521 2.16 1.01739 2.16 1.38462V3.11538H0.72C0.529044 3.11538 0.345909 3.18832 0.210883 3.31816C0.0758569 3.44799 0 3.62408 0 3.80769C0 3.9913 0.0758569 4.16739 0.210883 4.29723C0.345909 4.42706 0.529044 4.5 0.72 4.5H2.16V6.57692H0.72C0.529044 6.57692 0.345909 6.64986 0.210883 6.7797C0.0758569 6.90953 0 7.08562 0 7.26923C0 7.45284 0.0758569 7.62893 0.210883 7.75877C0.345909 7.8886 0.529044 7.96154 0.72 7.96154H2.16V10.0385H0.72C0.529044 10.0385 0.345909 10.1114 0.210883 10.2412C0.0758569 10.3711 0 10.5472 0 10.7308C0 10.9144 0.0758569 11.0905 0.210883 11.2203C0.345909 11.3501 0.529044 11.4231 0.72 11.4231H2.16V13.5H0.72C0.529044 13.5 0.345909 13.5729 0.210883 13.7028C0.0758569 13.8326 0 14.0087 0 14.1923C0 14.3759 0.0758569 14.552 0.210883 14.6818C0.345909 14.8117 0.529044 14.8846 0.72 14.8846H2.16V16.6154C2.16 16.9826 2.31171 17.3348 2.58177 17.5945C2.85182 17.8541 3.21809 18 3.6 18H16.56C16.9419 18 17.3082 17.8541 17.5782 17.5945C17.8483 17.3348 18 16.9826 18 16.6154V1.38462C18 1.01739 17.8483 0.66521 17.5782 0.405544C17.3082 0.145879 16.9419 0 16.56 0ZM16.56 16.6154H3.6V1.38462H16.56V16.6154Z" fill="white"/>
</svg>
