<svg width="24" height="20" viewBox="0 0 24 20" fill="none" xmlns="http://www.w3.org/2000/svg">
<path d="M15.3 9.36L20.1 6.6L15.3 3.84L10.5 6.6L15.3 9.36ZM15.3 13.02L18.6 11.1V8.58L15.3 10.5L12 8.58V11.1L15.3 13.02ZM2.4 0H21.6C22.26 0 22.8252 0.2352 23.2956 0.7056C23.7652 1.1752 24 1.74 24 2.4V16.8C24 17.46 23.7652 18.0252 23.2956 18.4956C22.8252 18.9652 22.26 19.2 21.6 19.2H15.6V16.8H21.6V2.4H2.4V3.6H0V2.4C0 1.74 0.2352 1.1752 0.7056 0.7056C1.1752 0.2352 1.74 0 2.4 0ZM0 19.2H3.6C3.6 18.2 3.25 17.35 2.55 16.65C1.85 15.95 1 15.6 0 15.6V19.2ZM6 19.2H8.4C8.4 16.86 7.5852 14.8748 5.9556 13.2444C4.3252 11.6148 2.34 10.8 0 10.8V13.2C1.66 13.2 3.0748 13.7848 4.2444 14.9544C5.4148 16.1248 6 17.54 6 19.2ZM0 6V8.4C1.5 8.4 2.9052 8.6848 4.2156 9.2544C5.5252 9.8248 6.6652 10.5948 7.6356 11.5644C8.6052 12.5348 9.3752 13.6752 9.9456 14.9856C10.5152 16.2952 10.8 17.7 10.8 19.2H13.2C13.2 17.38 12.8548 15.67 12.1644 14.07C11.4748 12.47 10.53 11.07 9.33 9.87C8.13 8.67 6.73 7.7252 5.13 7.0356C3.53 6.3452 1.82 6 0 6Z" fill="#F5F5F5"/>
</svg>
