<svg width="26" height="26" viewBox="0 0 26 26" fill="none" xmlns="http://www.w3.org/2000/svg">
<path d="M11.5833 1.66667L10.8749 0.25L10.1666 1.66667L8.74993 1.84375L9.93143 2.84675L9.45826 4.5L10.8749 3.5565L12.2916 4.5L11.8184 2.84675L12.9999 1.84375L11.5833 1.66667ZM23.3898 16.7768L22.2083 14.4167L21.0268 16.7768L18.6666 17.0729L20.6343 18.746L19.8481 21.5L22.2083 19.9261L24.5684 21.5L23.7822 18.746L25.7499 17.0729L23.3898 16.7768ZM5.44484 4.97175L4.49993 3.08333L3.55501 4.97175L1.66659 5.20833L3.24051 6.54567L2.61151 8.75L4.49993 7.49058L6.38834 8.75L5.75934 6.54567L7.33326 5.20833L5.44484 4.97175ZM0.836426 20.0833C0.836426 20.8398 1.13109 21.551 1.66659 22.0865L3.91343 24.3333C4.44893 24.8688 5.16009 25.1635 5.91659 25.1635C6.67309 25.1635 7.38426 24.8688 7.91976 24.3333L24.3333 7.91983C24.8688 7.38433 25.1634 6.67317 25.1634 5.91667C25.1634 5.16017 24.8688 4.449 24.3333 3.9135L22.0864 1.66667C21.0154 0.595667 19.1511 0.595667 18.0801 1.66667L1.66659 18.0802C1.13109 18.6157 0.836426 19.3268 0.836426 20.0833ZM20.0833 3.66983L22.3301 5.91667L17.2499 10.9968L15.0031 8.75L20.0833 3.66983Z" fill="#0099FF"/>
</svg>
