<svg width="20" height="19" viewBox="0 0 20 19" fill="none" xmlns="http://www.w3.org/2000/svg">
<g clip-path="url(#clip0_253_34)">
<path d="M13.5977 18.0781H6.71237C3.54398 18.0781 0.974609 15.5591 0.974609 12.4528V5.70238C0.974609 2.59606 3.54398 0.077034 6.71237 0.077034H13.5977C16.7661 0.077034 19.3354 2.59606 19.3354 5.70238V12.4528C19.3354 15.5591 16.7661 18.0781 13.5977 18.0781ZM17.6141 5.70238C17.6141 3.53099 15.8125 1.76464 13.5977 1.76464H6.71237C4.49759 1.76464 2.69594 3.53099 2.69594 5.70238V12.4528C2.69594 14.6242 4.49759 16.3905 6.71237 16.3905H13.5977C15.8125 16.3905 17.6141 14.6242 17.6141 12.4528V5.70238Z" fill="#007AFF"/>
<path d="M10.1551 13.5776C7.62021 13.5776 5.56494 11.5626 5.56494 9.07736C5.56494 6.59209 7.62021 4.57709 10.1551 4.57709C12.6901 4.57709 14.7454 6.59209 14.7454 9.07736C14.7454 11.5626 12.6901 13.5776 10.1551 13.5776ZM10.1551 6.26469C8.57382 6.26469 7.28627 7.52702 7.28627 9.07736C7.28627 10.6288 8.57382 11.89 10.1551 11.89C11.7365 11.89 13.024 10.6288 13.024 9.07736C13.024 7.52702 11.7365 6.26469 10.1551 6.26469Z" fill="#007AFF"/>
<path d="M15.0892 13.3153C15.427 13.3153 15.7008 13.5838 15.7008 13.915C15.7008 14.2462 15.427 14.5146 15.0892 14.5146C14.7514 14.5146 14.4775 14.2462 14.4775 13.915C14.4775 13.5838 14.7514 13.3153 15.0892 13.3153Z" fill="#007AFF"/>
</g>
<defs>
<clipPath id="clip0_253_34">
<rect width="18.3608" height="18.0011" fill="white" transform="matrix(1 0 0 -1 0.974609 18.0781)"/>
</clipPath>
</defs>
</svg>
