<svg width="24" height="24" viewBox="0 0 24 24" fill="none" xmlns="http://www.w3.org/2000/svg">
<path d="M11.9971 1.36693e-06C8.8153 1.36693e-06 5.76378 1.26398 3.51388 3.51388C1.26398 5.76378 0 8.8153 0 11.9971C0 12.3828 -5.74622e-08 12.7598 0.0599856 13.1369C0.28081 15.4508 1.16909 17.6508 2.61685 19.4693C4.0646 21.2879 6.00948 22.6467 8.21505 23.3806C10.4206 24.1145 12.7919 24.1919 15.0406 23.6033C17.2893 23.0147 19.3186 21.7856 20.8819 20.0653C22.4451 18.3449 23.4749 16.2075 23.846 13.9129C24.2172 11.6183 23.9138 9.26521 22.9727 7.13979C22.0316 5.01436 20.4933 3.2081 18.5448 1.94059C16.5963 0.673072 14.3216 -0.00110801 11.9971 1.36693e-06ZM11.9971 1.71388C14.7067 1.71623 17.3059 2.78792 19.2297 4.69602V5.55296C15.8427 4.38737 12.1609 4.40247 8.78362 5.59581C8.51381 5.33289 8.17513 5.15167 7.80671 5.07308H7.59247C7.48964 4.71316 7.39538 4.35325 7.31825 3.98476C7.24113 3.61628 7.19828 3.29064 7.15543 2.9393C8.64307 2.13649 10.3067 1.71543 11.9971 1.71388ZM9.42632 6.7441C12.5384 5.70195 15.9113 5.74121 18.9983 6.85551C18.5808 9.03265 17.669 11.0849 16.3332 12.8541C15.9596 12.6958 15.546 12.6579 15.1498 12.7454C14.7536 12.8329 14.3945 13.0416 14.1223 13.3425C13.8224 13.1711 13.5225 12.9998 13.2654 12.8027C11.5355 11.6484 10.0908 10.1159 9.0407 8.32087C9.21042 8.11042 9.33399 7.86662 9.40338 7.60531C9.47276 7.344 9.48642 7.07102 9.44346 6.80409L9.42632 6.7441ZM5.99857 3.65913C5.99857 3.83908 6.04998 4.02761 6.08426 4.20757C6.16139 4.58462 6.26422 4.9531 6.36705 5.32159C6.0389 5.5159 5.77479 5.80201 5.60729 6.14463C5.43979 6.48724 5.37622 6.87139 5.42442 7.2497C4.07174 8.13302 2.86352 9.21985 1.84242 10.4718C2.04731 9.11591 2.52131 7.8147 3.23654 6.64472C3.95177 5.47475 4.89378 4.45964 6.00714 3.65913H5.99857ZM5.99857 17.1216C5.66404 17.2339 5.36507 17.4325 5.13186 17.6973C4.89864 17.9621 4.73943 18.2838 4.67031 18.6298H4.12187C2.73798 16.9792 1.91029 14.934 1.75672 12.7855L1.85099 12.6227C2.92406 10.9588 4.32691 9.53264 5.97286 8.43227C6.21964 8.69 6.53149 8.87623 6.87542 8.97127C7.21936 9.0663 7.58258 9.06661 7.92668 8.97215C9.07288 10.9091 10.6397 12.5638 12.5113 13.8138C12.8626 14.0452 13.2226 14.2595 13.5825 14.4651C13.5537 14.7929 13.6067 15.1227 13.7367 15.4249C12.1685 16.6702 10.3596 17.5776 8.4237 18.09C8.19921 17.6705 7.83289 17.3446 7.39021 17.1703C6.94752 16.9961 6.4573 16.9849 6.00714 17.1388L5.99857 17.1216ZM11.9971 22.2633C10.2543 22.2637 8.54036 21.8183 7.01832 20.9693L7.25827 20.9179C7.59927 20.806 7.90399 20.6046 8.14064 20.3348C8.37729 20.065 8.53719 19.7366 8.60366 19.3839C10.7948 18.8252 12.8405 17.8023 14.6022 16.3847C15.0207 16.6292 15.5149 16.7103 15.9896 16.6122C16.4642 16.5141 16.8858 16.2438 17.173 15.8534C18.3821 16.1677 19.6258 16.3289 20.875 16.3332H21.3292C20.5025 18.111 19.1847 19.6154 17.5313 20.6691C15.8779 21.7228 13.9577 22.2819 11.9971 22.2804V22.2633ZM17.5758 14.6365C17.575 14.2773 17.4773 13.925 17.293 13.6167C18.7191 11.7539 19.7116 9.59623 20.198 7.30112C20.6265 7.50107 21.0493 7.72387 21.4663 7.96953C22.4088 10.1966 22.5362 12.6847 21.8262 14.9964C20.4035 15.1064 18.9723 14.9937 17.5844 14.6622L17.5758 14.6365Z" fill="white"/>
</svg>
