<svg width="14" height="20" viewBox="0 0 14 20" fill="none" xmlns="http://www.w3.org/2000/svg">
<path d="M5 17.2727H9V16.3636H5V17.2727ZM2 20C1.45 20 0.979333 19.8221 0.588 19.4664C0.196 19.11 0 18.6818 0 18.1818V1.81818C0 1.31818 0.196 0.89 0.588 0.533636C0.979333 0.177879 1.45 0 2 0H12C12.55 0 13.021 0.177879 13.413 0.533636C13.8043 0.89 14 1.31818 14 1.81818V18.1818C14 18.6818 13.8043 19.11 13.413 19.4664C13.021 19.8221 12.55 20 12 20H2ZM2 13.6364H12V4.54545H2V13.6364Z" fill="white"/>
</svg>
