<svg width="24" height="22" viewBox="0 0 24 22" fill="none" xmlns="http://www.w3.org/2000/svg">
<path d="M22.5835 4.48473C22.7403 4.22604 22.7081 3.89494 22.5044 3.67133C22.3015 3.44872 21.9769 3.38554 21.7055 3.5154C21.8661 3.20396 21.9978 2.87274 22.0972 2.52575C22.1759 2.25118 22.0752 1.95668 21.8449 1.78772C21.6147 1.61875 21.3035 1.61106 21.0652 1.76846C20.4496 2.17504 19.7794 2.47996 19.0675 2.67782C18.2207 1.83817 17.087 1.31765 15.8462 1.31765C13.1335 1.31765 11.0664 3.73353 11.0664 6.54292C11.0664 6.63537 11.068 6.72781 11.0716 6.82015C8.22041 6.42946 5.69807 4.81264 3.94231 2.42388C3.80272 2.23396 3.575 2.12953 3.33999 2.14767C3.10499 2.16581 2.89599 2.30394 2.78719 2.51303C2.38508 3.28581 2.1489 4.17155 2.1489 5.12369C2.1489 6.03752 2.3667 6.904 2.75039 7.65822C2.65204 7.66538 2.55481 7.69387 2.46587 7.74382C2.25079 7.86461 2.11765 8.09209 2.11765 8.33877V8.33885V8.33893V8.33901V8.33909V8.33918V8.33926V8.33934V8.33942V8.3395V8.33959V8.33967V8.33975V8.33983V8.33991V8.34V8.34008V8.34016V8.34025V8.34033V8.34041V8.34049V8.34058V8.34066V8.34074V8.34083V8.34091V8.34099V8.34108V8.34116V8.34125V8.34133V8.34141V8.3415V8.34158V8.34167V8.34175V8.34184V8.34192V8.342V8.34209V8.34217V8.34226V8.34234V8.34243V8.34251V8.3426V8.34268V8.34277V8.34286V8.34294V8.34303V8.34311V8.3432V8.34328V8.34337V8.34346V8.34354V8.34363V8.34372V8.3438V8.34389V8.34398V8.34406V8.34415V8.34424V8.34432V8.34441V8.3445V8.34458V8.34467V8.34476V8.34485V8.34493V8.34502V8.34511V8.3452V8.34528V8.34537V8.34546V8.34555V8.34564V8.34572V8.34581V8.3459V8.34599V8.34608V8.34617V8.34626V8.34634V8.34643V8.34652V8.34661V8.3467V8.34679V8.34688V8.34697V8.34706V8.34715V8.34724V8.34733V8.34742V8.34751V8.3476V8.34769V8.34778V8.34787V8.34796V8.34805V8.34814V8.34823V8.34832V8.34841V8.3485V8.34859V8.34868V8.34877V8.34886V8.34895V8.34904V8.34914V8.34923V8.34932V8.34941V8.3495V8.34959V8.34968V8.34978V8.34987V8.34996V8.35005V8.35014V8.35024V8.35033V8.35042V8.35051V8.3506V8.3507V8.35079V8.35088V8.35097V8.35107V8.35116V8.35125V8.35135V8.35144V8.35153V8.35162V8.35172V8.35181V8.3519V8.352V8.35209V8.35218V8.35228V8.35237V8.35247V8.35256V8.35265V8.35275V8.35284V8.35293V8.35303V8.35312V8.35322V8.35331V8.35341V8.3535V8.35359V8.35369V8.35378V8.35388V8.35397V8.35407V8.35416V8.35426V8.35435V8.35445V8.35454V8.35464V8.35473V8.35483V8.35492V8.35502V8.35511V8.35521V8.35531V8.3554V8.3555V8.35559V8.35569V8.35578V8.35588V8.35598V8.35607V8.35617V8.35626V8.35636V8.35646V8.35655V8.35665V8.35675V8.35684V8.35694V8.35704V8.35713V8.35723V8.35733V8.35742V8.35752V8.35762V8.35771V8.35781V8.35791V8.35801V8.3581V8.3582V8.3583V8.35839V8.35849V8.35859V8.35869V8.35878V8.35888V8.35898V8.35908V8.35918V8.35927V8.35937V8.35947V8.35957V8.35967V8.35976V8.35986V8.35996V8.36006V8.36016V8.36026V8.36035V8.36045V8.36055V8.36065V8.36075V8.36085V8.36095V8.36104V8.36114V8.36124V8.36134V8.36144V8.36154V8.36164V8.36174V8.36184V8.36194V8.36204V8.36213V8.36223V8.36233V8.36243V8.36253V8.36263V8.36273V8.36283V8.36293V8.36303V8.36313V8.36323V8.36333V8.36343V8.36353V8.36363V8.36373V8.36383V8.36393V8.36403V8.36413V8.36423V8.36433V8.36443V8.36453V8.36463V8.36473V8.36483V8.36494V8.36504V8.36514V8.36524V8.36534V8.36544V8.36554V8.36564V8.36574V8.36584V8.36594V8.36604V8.36615V8.36625V8.36635V8.36645V8.36655V8.36665V8.36675V8.36686V8.36696V8.36706V8.36716V8.36726V8.36736V8.36746V8.36757V8.36767V8.36777V8.36787V8.36797V8.36807V8.36818V8.36828V8.36838V8.36848V8.36858V8.36869V8.36879V8.36889V8.36899V8.3691V8.3692V8.3693V8.3694V8.3695V8.36961V8.36971V8.36981V8.36991V8.37002V8.37012V8.37022V8.37032V8.37043V8.37053V8.37063V8.37074V8.37084V8.37094V8.37104V8.37115V8.37125V8.37135V8.37146V8.37156V8.37166V8.37176V8.37187V8.37197V8.37207V8.37218V8.37228V8.37238V8.37249V8.37259V8.37269V8.3728V8.3729V8.373V8.37311V8.37321V8.37331V8.37342V8.37352V8.37362V8.37373V8.37383V8.37393V8.37404V8.37414V8.37425V8.37435V8.37445V8.37456V8.37466V8.37476V8.37487V8.37497V8.37508V8.37518V8.37528V8.37539V8.37549V8.3756V8.3757V8.3758V8.37591V8.37601V8.37612V8.37622V8.37633V8.37643V8.37653V8.37664V8.37674V8.37685V8.37695V8.37706V8.37716V8.37726V8.37737V8.37747V8.37758V8.37768V8.37779V8.37789V8.378V8.3781V8.3782V8.37831V8.37841V8.37852V8.37862V8.37873V8.37883V8.37894V8.37904V8.37915V8.37925V8.37935V8.37946V8.37956V8.37967V8.37977V8.37988V8.37998V8.38009V8.38019V8.3803V8.3804V8.38051V8.38061V8.38072V8.38082V8.38093V8.38103V8.38114V8.38124V8.38135V8.38145V8.38156V8.38166V8.38177V8.38187V8.38198V8.38208V8.38219V8.38229V8.3824V8.3825V8.38261V8.38271V8.38282V8.38293V8.38303V8.38314V8.38324V8.38335V8.38345V8.38356V8.38366V8.38377V8.38387V8.38398V8.38408V8.38419V8.38429V8.3844V8.3845V8.38461V8.38471V8.38482V8.38492V8.38503V8.38514V8.38524V8.38535V8.38545V8.38556V8.38566V8.38577V8.38587V8.38598V8.38608V8.38619V8.3863V8.3864V8.38651V8.38661V8.38672V8.38682V8.38693V8.38703V8.38714V8.38724V8.38735V8.38745V8.38756V8.38767V8.38777V8.38788V8.38798V8.38809V8.38819V8.3883V8.3884V8.38851V8.38862C2.11765 9.97333 2.76943 11.4167 3.81395 12.3853C3.78793 12.4056 3.76322 12.4279 3.74005 12.4522C3.57145 12.6289 3.51016 12.8823 3.57935 13.1165C4.0181 14.602 5.06063 15.8397 6.42453 16.4184C5.38964 17.0089 4.21689 17.3418 2.98125 17.3418C2.66735 17.3418 2.37819 17.3263 2.09572 17.2862C1.78439 17.2421 1.48323 17.4165 1.36645 17.7084C1.24967 18.0004 1.34751 18.3343 1.60338 18.5171C3.52918 19.8927 5.81912 20.6824 8.29 20.6824C12.2948 20.6824 15.4004 18.8367 17.4883 16.2133C19.5648 13.6041 20.6424 10.2209 20.6424 7.076C20.6424 6.98296 20.6411 6.89175 20.6389 6.80213C21.4042 6.14789 22.0506 5.36353 22.5835 4.48473Z" stroke="#007AFF" stroke-width="1.36471" stroke-linejoin="round"/>
</svg>
